<svg xmlns="http://www.w3.org/2000/svg" width="100.208" height="30.942" viewBox="0 0 100.208 30.942">
    <defs>
        <style>
            .cls-1{fill:#17202c}
        </style>
    </defs>
    <g id="logo-navbar" transform="translate(-453.813 -276.176)">
        <g id="text" transform="translate(453.813 276.176)">
            <g id="Group_122">
                <g id="Group_121">
                    <path id="Path_2878" d="M566.581 291.664v-11.532h-3.926v-2.46h10.815v2.46h-3.926v11.532z" class="cls-1" transform="translate(-562.655 -277.672)"/>
                    <path id="Path_2879" d="M588.235 291.664l-3.659-13.992h3.136l2.06 9.789h.113l2.419-9.789h2.522l2.409 9.789h.123l2.05-9.789h3.126l-3.659 13.992h-2.737l-2.522-9.44h-.1l-2.532 9.44z" class="cls-1" transform="translate(-570.801 -277.672)"/>
                    <path id="Path_2880" d="M619.122 291.664v-13.992h2.973v13.992z" class="cls-1" transform="translate(-583.639 -277.672)"/>
                    <path id="Path_2881" d="M631.794 291.664v-13.992h2.429l6.017 8.98h.1v-8.98h2.76v13.992h-2.419l-6.028-9.041h-.1v9.041z" class="cls-1" transform="translate(-588.348 -277.672)"/>
                    <path id="Path_2882" d="M662.965 277.672c4.521 0 6.273 2.829 6.273 6.95s-1.742 7.042-6.273 7.042h-5.238v-13.992zm-2.265 11.593h1.835c2.286 0 3.66-1.158 3.66-4.582 0-2.614-.831-4.613-3.66-4.613H660.7z" class="cls-1" transform="translate(-597.985 -277.672)"/>
                    <path id="Path_2883" d="M691.995 291.664h-9.133v-13.992h9.133v2.4H685.8v3.4h5.823v2.235H685.8v3.557h6.191z" class="cls-1" transform="translate(-607.325 -277.672)"/>
                    <path id="Path_2884" d="M710.3 284.684l4.357 6.98h-3.383l-2.87-4.838h-.133l-2.87 4.838h-3.209l4.284-7.052-4.264-6.939h3.5l2.778 4.93h.133l2.757-4.93h3.342z" class="cls-1" transform="translate(-614.507 -277.672)"/>
                </g>
            </g>
            <g id="Group_124" transform="translate(1.155 21.224)">
                <g id="Group_123">
                    <path id="Path_2885" d="M564.493 321.079v-9.294h5.228v.519h-4.667v3.848h4.284v.519h-4.284v4.408z" class="cls-1" transform="translate(-564.493 -311.573)"/>
                    <path id="Path_2886" d="M578.182 321.079v-9.294h.554v9.294z" class="cls-1" transform="translate(-569.58 -311.573)"/>
                    <path id="Path_2887" d="M585.6 321.079v-9.294h.581l5.358 8.31h.028v-8.31h.547v9.294h-.574l-5.358-8.31h-.027v8.31z" class="cls-1" transform="translate(-572.335 -311.573)"/>
                    <path id="Path_2888" d="M600.918 321.079l3.328-9.294h.588l3.328 9.294h-.594l-1.1-3.13h-3.875l-1.093 3.13zm3.6-8.6l-1.763 5h3.545l-1.756-5z" class="cls-1" transform="translate(-578.029 -311.573)"/>
                    <path id="Path_2889" d="M617.391 321.079v-9.294h.581l5.358 8.31h.028v-8.31h.547v9.294h-.574l-5.358-8.31h-.027v8.31z" class="cls-1" transform="translate(-584.15 -311.573)"/>
                    <path id="Path_2890" d="M634.088 317.16c0 1.94.9 3.5 2.959 3.5a2.433 2.433 0 0 0 2.7-2.31h.547v.021a2.963 2.963 0 0 1-3.253 2.8c-2.446 0-3.513-1.763-3.513-4.059v-1.578c0-2.282 1.114-4.08 3.486-4.08a2.986 2.986 0 0 1 3.219 2.837v.02h-.547a2.512 2.512 0 0 0-2.672-2.344c-1.989 0-2.925 1.565-2.925 3.506z" class="cls-1" transform="translate(-590.147 -311.447)"/>
                    <path id="Path_2891" d="M655.2 321.079h-5.3v-9.294h5.3v.519h-4.742v3.758h4.51v.513h-4.51v3.991h4.742z" class="cls-1" transform="translate(-596.228 -311.573)"/>
                </g>
            </g>
        </g>
    </g>
</svg>
